<svg width="20" height="10" viewBox="0 0 20 10" fill="none" xmlns="http://www.w3.org/2000/svg">
<path fill-rule="evenodd" clip-rule="evenodd" d="M0.000976562 5.00028C0.000976562 4.76158 0.0957976 4.53266 0.26458 4.36388C0.433363 4.1951 0.662282 4.10028 0.900977 4.10028H16.009L13.489 1.76028C13.4023 1.67991 13.3323 1.58325 13.283 1.47583C13.2337 1.36841 13.206 1.25233 13.2015 1.13422C13.1971 1.0161 13.2159 0.898263 13.257 0.787432C13.2981 0.676601 13.3606 0.574948 13.441 0.488275C13.6033 0.313232 13.8285 0.209837 14.067 0.200836C14.1852 0.196378 14.303 0.215229 14.4138 0.256312C14.5247 0.297396 14.6263 0.359906 14.713 0.440275L18.913 4.34028C19.0039 4.42452 19.0763 4.52663 19.1259 4.6402C19.1755 4.75377 19.2011 4.87636 19.2011 5.00028C19.2011 5.1242 19.1755 5.24678 19.1259 5.36035C19.0763 5.47392 19.0039 5.57603 18.913 5.66028L14.713 9.56028C14.5379 9.72259 14.3056 9.80872 14.067 9.79972C13.8285 9.79071 13.6033 9.68732 13.441 9.51228C13.2787 9.33723 13.1925 9.10488 13.2015 8.86633C13.2105 8.62779 13.3139 8.40259 13.489 8.24028L16.009 5.90028H0.900977C0.662282 5.90028 0.433363 5.80545 0.26458 5.63667C0.0957976 5.46789 0.000976562 5.23897 0.000976562 5.00028Z" fill="white"/>
</svg>
