<svg width="19" height="20" viewBox="0 0 19 20" fill="none" xmlns="http://www.w3.org/2000/svg">
<path d="M14.7073 10.55C14.6145 10.4571 14.5043 10.3834 14.383 10.333C14.2617 10.2827 14.1317 10.2568 14.0003 10.2568C13.869 10.2568 13.739 10.2827 13.6176 10.333C13.4963 10.3834 13.3861 10.4571 13.2933 10.55L11.6993 12.144C10.9603 11.924 9.58133 11.424 8.70733 10.55C7.83333 9.67604 7.33333 8.29704 7.11333 7.55804L8.70733 5.96404C8.80028 5.87125 8.87402 5.76105 8.92433 5.63973C8.97464 5.51842 9.00054 5.38837 9.00054 5.25704C9.00054 5.1257 8.97464 4.99566 8.92433 4.87434C8.87402 4.75303 8.80028 4.64283 8.70733 4.55004L4.70733 0.550037C4.61455 0.457091 4.50434 0.383353 4.38303 0.333043C4.26171 0.282732 4.13167 0.256836 4.00033 0.256836C3.869 0.256836 3.73896 0.282732 3.61764 0.333043C3.49633 0.383353 3.38612 0.457091 3.29333 0.550037L0.581334 3.26204C0.201334 3.64204 -0.0126663 4.16404 -0.00466627 4.69704C0.0183337 6.12104 0.395334 11.067 4.29333 14.965C8.19133 18.863 13.1373 19.239 14.5623 19.263H14.5903C15.1183 19.263 15.6173 19.055 15.9953 18.677L18.7073 15.965C18.8003 15.8722 18.874 15.762 18.9243 15.6407C18.9746 15.5194 19.0005 15.3894 19.0005 15.258C19.0005 15.1267 18.9746 14.9967 18.9243 14.8753C18.874 14.754 18.8003 14.6438 18.7073 14.551L14.7073 10.55ZM14.5803 17.262C13.3323 17.241 9.06233 16.906 5.70733 13.55C2.34133 10.184 2.01533 5.89904 1.99533 4.67604L4.00033 2.67104L6.58633 5.25704L5.29333 6.55004C5.1758 6.66749 5.08938 6.81237 5.04189 6.97161C4.9944 7.13084 4.98733 7.29939 5.02133 7.46204C5.04533 7.57704 5.63233 10.304 7.29233 11.964C8.95233 13.624 11.6793 14.211 11.7943 14.235C11.9569 14.27 12.1256 14.2635 12.285 14.2161C12.4444 14.1688 12.5893 14.0821 12.7063 13.964L14.0003 12.671L16.5863 15.257L14.5803 17.262Z" fill="white"/>
</svg>
