<svg width="34" height="34" viewBox="0 0 34 34" fill="none" xmlns="http://www.w3.org/2000/svg">
<path d="M15.6503 22.1967L25.215 31.7615C26.0353 32.5555 27.1349 32.9954 28.2766 32.9861C29.4182 32.9769 30.5105 32.5192 31.3178 31.7119C32.1251 30.9046 32.5827 29.8123 32.592 28.6707C32.6013 27.529 32.1614 26.4295 31.3673 25.6092L21.7255 15.9673M15.6503 22.1967L19.7452 17.2256C20.2653 16.5957 20.9593 16.1986 21.7271 15.9689C22.6294 15.6999 23.6351 15.6605 24.5867 15.7393C25.8694 15.8494 27.1585 15.6222 28.3263 15.0802C29.4941 14.5383 30.4998 13.7004 31.2437 12.6497C31.9876 11.599 32.4439 10.372 32.5671 9.09051C32.6904 7.80903 32.4765 6.51759 31.9465 5.34434L26.5718 10.7206C25.6726 10.5127 24.8499 10.0564 24.1973 9.40383C23.5446 8.75121 23.0884 7.92846 22.8805 7.02925L28.2551 1.6546C27.0819 1.12463 25.7904 0.910658 24.5089 1.03393C23.2274 1.15721 22.0005 1.61344 20.9498 2.35736C19.8991 3.10127 19.0612 4.10701 18.5192 5.27477C17.9772 6.44253 17.75 7.73171 17.8602 9.01439C18.0095 10.7797 17.7437 12.7287 16.3771 13.8542L16.2097 13.9936M15.6503 22.1967L8.01324 31.4711C7.6431 31.9223 7.1826 32.2909 6.66137 32.5534C6.14013 32.8158 5.56973 32.9663 4.98685 32.9949C4.40398 33.0236 3.82155 32.93 3.27707 32.72C2.73259 32.51 2.2381 32.1883 1.82545 31.7756C1.4128 31.363 1.09112 30.8685 0.881115 30.324C0.671112 29.7795 0.57744 29.1971 0.606129 28.6142C0.634817 28.0314 0.785229 27.4609 1.04768 26.9397C1.31014 26.4185 1.67882 25.958 2.13 25.5878L13.3469 16.3512L6.60887 9.61321H4.29725L0.605876 3.46092L3.06679 1L9.21909 4.69138V7.003L16.2081 13.992L13.3452 16.3496M27.0607 27.4549L22.7541 23.1483M4.89936 28.6853H4.91248V28.6984H4.89936V28.6853Z" stroke="white" stroke-linecap="round" stroke-linejoin="round"/>
</svg>
